<svg version="1.1" xmlns="http://www.w3.org/2000/svg" viewBox="0 0 112 116" width="31" height="32"><g transform="translate(10 58) rotate(0 44.137654685319944 24)"><path d="M7.679466608911745 0.33267877921462063 L83.7626608395905 0.7427577100694176 L86.98273213151403 1.204090150445698 L87.91096153500979 6.965626295655958 L87.97222697976535 44.60991009101267 L86.59531264546818 46.8780792318284 L81.43790896180576 48.64486516341562 L4.336303237825628 46.89359308108683 L1.1816171444952472 45.84118193015451 L-0.507049509137869 40.21314440593119 L-0.10638129338622093 6.468586953729384 L1.360843471437691 1.6752097688615306 L7.450752715021364 0.08430679664015771" stroke="none" stroke-width="0" fill="#434343"></path><path d="M7.199999999999992 0 M7.199999999999992 0 C37.28737737582839 -0.5485344618820103, 66.02690756786302 -0.6034830063842687, 81.07530937063999 0 C86.47240656110948 0.07848115339875222, 87.83906508180803 2.051933792978523, 88.27530937063997 7.199999999999992 M88.27530937063997 7.199999999999992 C87.61124869059627 18.07107325047253, 87.57560632895535 28.062342119961947, 88.27530937063997 40.799999999999955 C88.28891413453525 46.315557988733005, 85.77498350385136 48.370084246247956, 81.07530937063999 47.99999999999995 M81.07530937063999 47.99999999999995 C55.411036935492 48.25760718600298, 30.88177313720605 47.77938517348314, 7.199999999999992 47.99999999999995 C1.6944255433976627 48.41540534868832, -0.7684134639799596 46.31368022337551, 0 40.799999999999955 M0 40.799999999999955 C-0.8305245164394378 28.25761648416516, 0.14056453671455396 16.493438521772603, 0 7.199999999999992 C0.4893374003469944 2.405652149766681, 1.6349213875830149 0.09030001983046532, 7.199999999999992 0" stroke="#e2e2e2" stroke-width="1.575" fill="none"></path></g><g transform="translate(56 10) rotate(0 23 48)"><path d="M6.13607669249178 -0.14197672978043557 L38.54127676859504 -0.5291031517088414 L42.58051386252052 0.634657724946738 L45.06304090395577 3.997474845498806 L46.68951707258827 89.57861090525988 L46.195757798105554 92.81217234954241 L42.30898476019508 95.99085937365894 L6.541575888544331 95.30971592292194 L3.1785653628408967 96.27862969264392 L-0.16610638722777304 92.32858212813738 L-0.7933426819741727 7.455398424714814 L1.7623594082891967 1.9009975276887445 L6.476659063249836 0.10964213237166405" stroke="none" stroke-width="0" fill="#434343"></path><path d="M6.90000000000001 0 M6.90000000000001 0 C15.155958521310264 0.4569856983922424, 24.01262444619093 0.7528924090169373, 39.10000000000006 0 C44.135710724443264 0.19237959757447243, 45.955554517358614 2.472107414156202, 46.00000000000007 6.90000000000001 M46.00000000000007 6.90000000000001 C45.27207640842131 36.93995720924812, 46.19419848159484 69.08861060876403, 46.00000000000007 89.10000000000004 C46.75550995245583 94.12091499194507, 43.28757617846138 96.68971050605182, 39.10000000000006 96.00000000000004 M39.10000000000006 96.00000000000004 C28.941817573662895 95.61603969131488, 18.033185767792197 95.76965437923451, 6.90000000000001 96.00000000000004 C3.025279220193628 96.3532379664481, -0.050121585279703146 93.48095696344976, 0 89.10000000000004 M0 89.10000000000004 C0.04476884794309727 70.14913891164589, -0.5024274687759579 52.61217251610013, 0 6.90000000000001 C0.006958989053964615 2.2173606239259276, 2.0146775282919442 -0.0010318197309970856, 6.90000000000001 0" stroke="#e2e2e2" stroke-width="1.575" fill="none"></path></g><g transform="translate(56 10) rotate(0 23 24)"><path d="M6.516078408807512 0.5208715476095677 L39.69047466143963 0.4023823536932469 L43.673595126718254 1.7103618182241909 L46.60032749995587 6.108750370889898 L46.78915322646496 41.515394691377864 L44.59214750155804 46.5020477093756 L38.9199792705476 47.81936860457061 L7.641911228746172 47.99692280665039 L1.9857998214662067 46.543181995302426 L-0.1869047559797764 41.42052410021423 L0.018841441720724106 7.595233301073309 L1.3316761098802081 1.1875000275671472 L6.8388306938111745 -0.7035790406167508" stroke="none" stroke-width="0" fill="#632924"></path><path d="M6.899999999999996 0 M6.899999999999996 0 C20.253068222757417 -0.015847413220256595, 32.11851916369048 0.7627762869216502, 39.09999999999997 0 C43.01729908362029 0.54406543597579, 46.18265998736021 1.8802498660981644, 45.99999999999997 6.899999999999996 M45.99999999999997 6.899999999999996 C45.40292215582204 19.849503332953894, 46.55233977075887 33.18869341354816, 45.99999999999997 41.09999999999999 C46.358421119302484 46.245849851518855, 43.61818266734478 47.395535401254875, 39.09999999999997 47.999999999999986 M39.09999999999997 47.999999999999986 C31.221640266124137 48.423907923056916, 23.851721690632388 47.93238468106015, 6.899999999999996 47.999999999999986 C2.342606762796639 48.671046956628544, 0.10764341726899147 44.95539499148725, 0 41.09999999999999 M0 41.09999999999999 C-0.6263826948173344 33.07428471000864, -0.3298512798316776 24.913481783159067, 0 6.899999999999996 C0.38105464801192285 2.5889141835272302, 2.8765530429780473 0.3919375933706761, 6.899999999999996 0" stroke="#e2e2e2" stroke-width="1.575" fill="none"></path></g><g transform="translate(10 58) rotate(0 23 24)"><path d="M7.34008601531386 0.19204521551728249 L38.914598234742854 -0.7286107264459134 L44.70662372931835 1.4340379275381556 L45.76980019435284 6.925181607156988 L45.54135907515881 41.24391699209808 L44.09212556704876 45.94324701204894 L39.451518615335196 48.155080846697075 L6.407550915330645 48.19023392572998 L2.1068289123475545 45.53842792883514 L0.12955280169844627 40.34329078570007 L-0.7104834713041783 7.152356676012274 L2.434107788652181 2.2670660294592375 L6.569308026880022 0.36776552572846416" stroke="none" stroke-width="0" fill="#2a5d33"></path><path d="M6.899999999999996 0 M6.899999999999996 0 C18.327064981218413 -0.6441189107559622, 30.165889549814143 -0.46479330631718047, 39.09999999999997 0 C42.974117282777996 -0.6846430219709874, 45.59668643847105 2.751071437448262, 45.99999999999997 6.899999999999996 M45.99999999999997 6.899999999999996 C45.40541027666402 14.836172153335058, 45.29322510839772 21.082416224293404, 45.99999999999997 41.09999999999999 C46.09025343284008 45.523456624895324, 43.37474032267926 48.19011605158447, 39.09999999999997 47.999999999999986 M39.09999999999997 47.999999999999986 C31.554073942843804 48.01654468853695, 23.967534516789 47.547403038337066, 6.899999999999996 47.999999999999986 C2.860942295938729 48.4455672584474, 0.7771325148642063 45.063625010102974, 0 41.09999999999999 M0 41.09999999999999 C-0.658065679550916 30.43874786289408, 0.3297926397316158 20.53193998742848, 0 6.899999999999996 C-0.6504858411848545 2.69796016588807, 2.635167583078145 -0.3255972348153591, 6.899999999999996 0" stroke="#e2e2e2" stroke-width="1.575" fill="none"></path></g></svg>